HIERARCHY
ROOT Hips
{
    OFFSET 0.000000 0.000000 0.000000
    CHANNELS 6 Xposition Yposition Zposition Zrotation Xrotation Yrotation
    JOINT Spine
    {
        OFFSET -0.000000 0.072775 0.000000
        CHANNELS 3 Zrotation Xrotation Yrotation
        JOINT Spine1
        {
            OFFSET -0.000000 0.195886 0.000000
            CHANNELS 3 Zrotation Xrotation Yrotation
            JOINT Neck
            {
                OFFSET -0.000000 0.195082 0.017735
                CHANNELS 3 Zrotation Xrotation Yrotation
                JOINT Head
                {
                    OFFSET -0.000000 0.124250 -0.017750
                    CHANNELS 3 Zrotation Xrotation Yrotation
                    End Site
                    {
                        OFFSET -0.000000 0.177500 0.000000
                    }
                }
            }
            JOINT LeftShoulder
            {
                OFFSET 0.035772 0.183979 -0.000787
                CHANNELS 3 Zrotation Xrotation Yrotation
                JOINT LeftArm
                {
                    OFFSET 0.089258 0.000000 0.000000
                    CHANNELS 3 Zrotation Xrotation Yrotation
                    JOINT LeftForeArm
                    {
                        OFFSET 0.285064 0.000000 0.000000
                        CHANNELS 3 Zrotation Xrotation Yrotation
                        JOINT LeftHand
                        {
                            OFFSET 0.227012 0.000000 0.000000
                            CHANNELS 3 Zrotation Xrotation Yrotation
                            JOINT LeftHandThumb1
                            {
                                OFFSET 0.022188 -0.013313 0.044375
                                CHANNELS 3 Zrotation Xrotation Yrotation
                                JOINT LeftHandThumb2
                                {
                                    OFFSET 0.026625 0.000000 0.000000
                                    CHANNELS 3 Zrotation Xrotation Yrotation
                                    JOINT LeftHandThumb3
                                    {
                                        OFFSET 0.026625 0.000000 0.000000
                                        CHANNELS 3 Zrotation Xrotation Yrotation
                                        End Site
                                        {
                                            OFFSET 0.023630 0.000000 0.000000
                                        }
                                    }
                                }
                            }
                            JOINT LeftHandIndex1
                            {
                                OFFSET 0.079875 0.000000 0.031063
                                CHANNELS 3 Zrotation Xrotation Yrotation
                                JOINT LeftHandIndex2
                                {
                                    OFFSET 0.044375 0.000000 0.000000
                                    CHANNELS 3 Zrotation Xrotation Yrotation
                                    JOINT LeftHandIndex3
                                    {
                                        OFFSET 0.022188 0.000000 0.000000
                                        CHANNELS 3 Zrotation Xrotation Yrotation
                                        End Site
                                        {
                                            OFFSET 0.019691 0.000000 0.000000
                                        }
                                    }
                                }
                            }
                            JOINT LeftHandMiddle1
                            {
                                OFFSET 0.079875 0.000000 0.010295
                                CHANNELS 3 Zrotation Xrotation Yrotation
                                JOINT LeftHandMiddle2
                                {
                                    OFFSET 0.048813 0.000000 0.000000
                                    CHANNELS 3 Zrotation Xrotation Yrotation
                                    JOINT LeftHandMiddle3
                                    {
                                        OFFSET 0.026625 0.000000 0.000000
                                        CHANNELS 3 Zrotation Xrotation Yrotation
                                        End Site
                                        {
                                            OFFSET 0.023630 0.000000 0.000000
                                        }
                                    }
                                }
                            }
                            JOINT LeftHandRing1
                            {
                                OFFSET 0.075438 0.000000 -0.010295
                                CHANNELS 3 Zrotation Xrotation Yrotation
                                JOINT LeftHandRing2
                                {
                                    OFFSET 0.044375 0.000000 0.000000
                                    CHANNELS 3 Zrotation Xrotation Yrotation
                                    JOINT LeftHandRing3
                                    {
                                        OFFSET 0.022188 0.000000 0.000000
                                        CHANNELS 3 Zrotation Xrotation Yrotation
                                        End Site
                                        {
                                            OFFSET 0.019691 0.000000 0.000000
                                        }
                                    }
                                }
                            }
                            JOINT LeftHandPinky1
                            {
                                OFFSET 0.071000 0.000000 -0.031063
                                CHANNELS 3 Zrotation Xrotation Yrotation
                                JOINT LeftHandPinky2
                                {
                                    OFFSET 0.035500 0.000000 0.000000
                                    CHANNELS 3 Zrotation Xrotation Yrotation
                                    JOINT LeftHandPinky3
                                    {
                                        OFFSET 0.017750 0.000000 0.000000
                                        CHANNELS 3 Zrotation Xrotation Yrotation
                                        End Site
                                        {
                                            OFFSET 0.015753 0.000000 0.000000
                                        }
                                    }
                                }
                            }
                        }
                    }
                }
            }
            JOINT RightShoulder
            {
                OFFSET -0.035163 0.183979 -0.000787
                CHANNELS 3 Zrotation Xrotation Yrotation
                JOINT RightArm
                {
                    OFFSET -0.089258 0.000000 0.000000
                    CHANNELS 3 Zrotation Xrotation Yrotation
                    JOINT RightForeArm
                    {
                        OFFSET -0.285064 0.000000 0.000000
                        CHANNELS 3 Zrotation Xrotation Yrotation
                        JOINT RightHand
                        {
                            OFFSET -0.227012 0.000000 0.000000
                            CHANNELS 3 Zrotation Xrotation Yrotation
                            JOINT RightHandThumb1
                            {
                                OFFSET -0.022188 -0.013313 0.044375
                                CHANNELS 3 Zrotation Xrotation Yrotation
                                JOINT RightHandThumb2
                                {
                                    OFFSET -0.026625 0.000000 0.000000
                                    CHANNELS 3 Zrotation Xrotation Yrotation
                                    JOINT RightHandThumb3
                                    {
                                        OFFSET -0.026625 0.000000 0.000000
                                        CHANNELS 3 Zrotation Xrotation Yrotation
                                        End Site
                                        {
                                            OFFSET -0.023630 0.000000 0.000000
                                        }
                                    }
                                }
                            }
                            JOINT RightHandIndex1
                            {
                                OFFSET -0.079875 0.000000 0.031063
                                CHANNELS 3 Zrotation Xrotation Yrotation
                                JOINT RightHandIndex2
                                {
                                    OFFSET -0.044375 0.000000 0.000000
                                    CHANNELS 3 Zrotation Xrotation Yrotation
                                    JOINT RightHandIndex3
                                    {
                                        OFFSET -0.022188 0.000000 0.000000
                                        CHANNELS 3 Zrotation Xrotation Yrotation
                                        End Site
                                        {
                                            OFFSET -0.019691 0.000000 0.000000
                                        }
                                    }
                                }
                            }
                            JOINT RightHandMiddle1
                            {
                                OFFSET -0.079875 0.000000 0.010295
                                CHANNELS 3 Zrotation Xrotation Yrotation
                                JOINT RightHandMiddle2
                                {
                                    OFFSET -0.048813 0.000000 0.000000
                                    CHANNELS 3 Zrotation Xrotation Yrotation
                                    JOINT RightHandMiddle3
                                    {
                                        OFFSET -0.026625 0.000000 0.000000
                                        CHANNELS 3 Zrotation Xrotation Yrotation
                                        End Site
                                        {
                                            OFFSET -0.023630 0.000000 0.000000
                                        }
                                    }
                                }
                            }
                            JOINT RightHandRing1
                            {
                                OFFSET -0.075438 0.000000 -0.010295
                                CHANNELS 3 Zrotation Xrotation Yrotation
                                JOINT RightHandRing2
                                {
                                    OFFSET -0.044375 0.000000 0.000000
                                    CHANNELS 3 Zrotation Xrotation Yrotation
                                    JOINT RightHandRing3
                                    {
                                        OFFSET -0.022188 0.000000 0.000000
                                        CHANNELS 3 Zrotation Xrotation Yrotation
                                        End Site
                                        {
                                            OFFSET -0.019691 0.000000 0.000000
                                        }
                                    }
                                }
                            }
                            JOINT RightHandPinky1
                            {
                                OFFSET -0.071000 0.000000 -0.031063
                                CHANNELS 3 Zrotation Xrotation Yrotation
                                JOINT RightHandPinky2
                                {
                                    OFFSET -0.035500 0.000000 0.000000
                                    CHANNELS 3 Zrotation Xrotation Yrotation
                                    JOINT RightHandPinky3
                                    {
                                        OFFSET -0.017750 0.000000 0.000000
                                        CHANNELS 3 Zrotation Xrotation Yrotation
                                        End Site
                                        {
                                            OFFSET -0.015753 0.000000 0.000000
                                        }
                                    }
                                }
                            }
                        }
                    }
                }
            }
        }
    }
    JOINT LeftUpLeg
    {
        OFFSET 0.088750 0.000000 0.000000
        CHANNELS 3 Zrotation Xrotation Yrotation
        JOINT LeftLeg
        {
            OFFSET -0.000000 -0.379026 0.000000
            CHANNELS 3 Zrotation Xrotation Yrotation
            JOINT LeftFoot
            {
                OFFSET -0.000000 -0.385721 0.000000
                CHANNELS 3 Zrotation Xrotation Yrotation
                JOINT LeftToeBase
                {
                    OFFSET -0.000000 -0.057688 0.133125
                    CHANNELS 3 Zrotation Xrotation Yrotation
                    End Site
                    {
                        OFFSET -0.000000 0.000000 0.035500
                    }
                }
            }
        }
    }
    JOINT RightUpLeg
    {
        OFFSET -0.088750 0.000000 0.000000
        CHANNELS 3 Zrotation Xrotation Yrotation
        JOINT RightLeg
        {
            OFFSET -0.000000 -0.379026 0.000000
            CHANNELS 3 Zrotation Xrotation Yrotation
            JOINT RightFoot
            {
                OFFSET -0.000000 -0.385721 0.000000
                CHANNELS 3 Zrotation Xrotation Yrotation
                JOINT RightToeBase
                {
                    OFFSET -0.000000 -0.057688 0.133125
                    CHANNELS 3 Zrotation Xrotation Yrotation
                    End Site
                    {
                        OFFSET -0.000000 0.000000 0.035500
                    }
                }
            }
        }
    }
}
MOTION
Frames:    6
Frame Time:    0.040000
3.238889    0.901877    1.549482    -38.778393    -7.795859    179.557358    -3.973713    8.986965    7.364493    -20.678778    12.725585    4.658832    -11.457363    5.467184    27.991592    -19.781767    -2.282336    27.363079    12.194983    -0.965372    -3.235625    16.138824    37.002842    -35.071335    0.0    1.251832    -8.927969    60.428982    8.316911    0.0    14.702949    -9.581976    12.811426    -0.0    0.0    6.177423    -0.0    0.0    12.354845    45.000004    0.0    -0.0    0.0    0.0    0.0    0.0    0.0    0.0    35.368164    5.859196    11.980392    0.0    0.0    0.0    0.0    0.0    0.0    24.615639    9.502408    24.90871    0.0    0.0    0.0    0.0    0.0    0.0    12.887297    10.600158    38.799442    0.0    0.0    0.0    0.0    0.0    0.0    -11.478331    -3.534515    22.349541    90.0    -17.977554    90.0    0.0    -66.201927    -10.0    78.437401    20.0    0.0    74.992531    19.159033    -117.761162    0.0    0.0    -45.000004    0.0    0.0    -89.999992    -8.468613    -2.388324    15.636028    0.0    0.0    0.0    0.0    0.0    0.0    -0.689586    -0.882148    10.601725    10.130615    0.0    -0.0    5.065308    0.0    -0.0    7.189777    -0.075935    5.411057    20.26123    0.0    -0.0    10.130614    0.0    -0.0    15.349416    0.0    -0.0    30.698832    0.0    -0.0    15.349416    0.0    -0.0    121.100899    -35.0    68.246048    -150.945709    48.568363    105.0    5.0    -30.0    15.0    0.438737    9.92223    0.641258    -50.066162    -14.05875    -18.320839    0.2    22.373285    -1.0    5.0    -11.593794    15.0    -2.298596    2.484846    2.411815
3.236722    0.901988    1.548916    -38.733978    -7.940869    179.619431    -4.209803    9.146461    7.518999    -20.483166    12.508035    4.639958    -11.310596    5.638261    28.089401    -19.964222    -1.859347    27.480536    12.521413    -0.997385    -3.290972    15.224174    37.030674    -34.234425    0.0    1.225899    -10.0    59.28912    8.872252    0.0    14.702949    -9.581976    12.811426    -0.0    0.0    6.177423    -0.0    0.0    12.354845    45.000004    0.0    -0.0    0.0    0.0    0.0    0.0    0.0    0.0    35.454216    5.896424    11.95972    0.0    0.0    0.0    0.0    0.0    0.0    24.777973    9.598236    24.870745    0.0    0.0    0.0    0.0    0.0    0.0    13.109313    10.775434    38.758266    0.0    0.0    0.0    0.0    0.0    0.0    -11.365204    -3.381513    22.023523    90.0    -17.977554    90.0    0.0    -66.201927    -10.0    77.995682    20.0    0.0    74.992531    19.159033    -117.761162    0.0    0.0    -45.000004    0.0    0.0    -89.999992    -8.468613    -2.388324    15.636028    0.0    0.0    0.0    0.0    0.0    0.0    -0.689586    -0.882148    10.601725    10.130615    0.0    -0.0    5.065308    0.0    -0.0    7.189777    -0.075935    5.411057    20.26123    0.0    -0.0    10.130614    0.0    -0.0    15.349416    0.0    -0.0    30.698832    0.0    -0.0    15.349416    0.0    -0.0    121.436935    -35.0    68.445808    -150.981491    48.374535    105.0    5.0    -30.0    15.0    0.438737    9.92223    0.641258    -50.222729    -13.969528    -18.268713    0.2    22.319862    -1.0    5.0    -10.554701    15.0    -3.514109    1.249395    4.925488
3.234325    0.901804    1.548462    -38.575974    -8.007163    179.539749    -4.840763    9.205754    7.811298    -19.650229    12.546944    4.632897    -10.883109    6.137121    27.979074    -20.84733    -1.931817    27.128824    13.207834    -1.273633    -2.974735    12.674215    36.746632    -32.135082    0.0    1.027949    -10.0    56.47871    9.694232    0.0    14.702949    -9.581976    12.811426    -0.0    0.0    6.177423    -0.0    0.0    12.354845    45.000004    0.0    -0.0    0.0    0.0    0.0    0.0    0.0    0.0    35.301971    5.830511    11.996236    0.0    0.0    0.0    0.0    0.0    0.0    24.49081    9.428579    24.937693    0.0    0.0    0.0    0.0    0.0    0.0    12.716644    10.465186    38.830643    0.0    0.0    0.0    0.0    0.0    0.0    -11.698336    -3.267421    20.946215    90.0    -18.06785    90.0    0.0    -66.201927    -10.0    79.950607    20.0    0.0    74.992531    19.159033    -117.761162    0.0    0.0    -45.000004    0.0    0.0    -89.999992    -8.468613    -2.388324    15.636028    0.0    0.0    0.0    0.0    0.0    0.0    -0.689586    -0.882148    10.601725    10.130615    0.0    -0.0    5.065308    0.0    -0.0    7.189777    -0.075935    5.411057    20.26123    0.0    -0.0    10.130614    0.0    -0.0    15.349416    0.0    -0.0    30.698832    0.0    -0.0    15.349416    0.0    -0.0    121.844208    -35.0    68.611572    -151.338562    48.088409    105.0    5.0    -30.0    15.0    0.438737    9.92223    0.641258    -50.354752    -14.063247    -18.412048    0.2    22.477564    -1.0    5.0    -10.025234    15.0    -3.727687    0.923936    5.427337
3.231063    0.901617    1.547544    -38.34433    -7.76448    179.207443    -5.412257    9.913735    7.483282    -18.895136    11.61547    4.255852    -11.580088    7.040671    27.786839    -20.124544    -2.528534    26.895132    12.925385    -0.961139    -1.563319    10.553205    36.573864    -29.005041    0.0    0.44234    -10.0    53.32954    10.55835    0.0    14.702949    -9.581976    12.811426    -0.0    0.0    6.177423    -0.0    0.0    12.354845    45.000004    0.0    -0.0    0.0    0.0    0.0    0.0    0.0    0.0    35.333931    5.844367    11.988592    0.0    0.0    0.0    0.0    0.0    0.0    24.551077    9.464237    24.923725    0.0    0.0    0.0    0.0    0.0    0.0    12.799029    10.530372    38.815628    0.0    0.0    0.0    0.0    0.0    0.0    -12.185989    -3.070093    19.964798    90.0    -18.017509    90.0    0.0    -66.201927    -10.0    82.3311    20.0    0.0    74.992531    19.159033    -117.761162    0.0    0.0    -45.000004    0.0    0.0    -89.999992    -8.468613    -2.388324    15.636028    0.0    0.0    0.0    0.0    0.0    0.0    -0.689586    -0.882148    10.601725    10.130615    0.0    -0.0    5.065308    0.0    -0.0    7.189777    -0.075935    5.411057    20.26123    0.0    -0.0    10.130614    0.0    -0.0    15.349416    0.0    -0.0    30.698832    0.0    -0.0    15.349416    0.0    -0.0    121.715408    -35.0    68.244865    -151.958145    47.559219    105.0    5.0    -30.0    15.0    0.438737    9.92223    0.641258    -50.572182    -14.256394    -18.233337    0.2    22.902164    -1.0    5.0    -9.34887    15.0    -3.499487    0.507689    5.292436
3.226729    0.900958    1.546254    -37.96603    -7.285185    178.898315    -5.648369    10.601429    7.10368    -18.404356    10.964312    3.950983    -11.969869    8.868582    27.458868    -19.822361    -2.922777    26.354326    12.917295    -1.109157    -0.280706    8.484941    37.361008    -25.777172    0.0    -0.402207    -10.0    51.872692    11.755953    0.0    14.702949    -9.581976    12.811426    -0.0    0.0    6.177423    -0.0    0.0    12.354845    45.000004    0.0    -0.0    0.0    0.0    0.0    0.0    0.0    0.0    35.223888    5.796616    12.014852    0.0    0.0    0.0    0.0    0.0    0.0    24.343628    9.341368    24.971634    0.0    0.0    0.0    0.0    0.0    0.0    12.51548    10.30582    38.866901    0.0    0.0    0.0    0.0    0.0    0.0    -12.823531    -3.242635    18.680153    90.0    -17.902088    90.0    0.0    -66.201927    -10.0    82.668488    20.0    0.0    74.992531    19.159033    -117.761162    0.0    0.0    -45.000004    0.0    0.0    -89.999992    -8.468613    -2.388324    15.636028    0.0    0.0    0.0    0.0    0.0    0.0    -0.689586    -0.882148    10.601725    10.130615    0.0    -0.0    5.065308    0.0    -0.0    7.189777    -0.075935    5.411057    20.26123    0.0    -0.0    10.130614    0.0    -0.0    15.349416    0.0    -0.0    30.698832    0.0    -0.0    15.349416    0.0    -0.0    121.790321    -35.0    67.981453    -152.79277    46.706715    105.0    5.0    -30.0    15.0    0.438737    9.92223    0.641258    -50.739326    -14.33006    -18.204453    0.2    23.464533    -1.0    5.0    -8.622337    15.0    -3.6432    0.575998    5.480078
3.221332    0.899893    1.544092    -37.619591    -6.424909    178.372406    -6.077514    11.34083    7.01601    -17.741947    10.472725    3.762352    -13.045026    10.652189    26.736261    -18.297009    -2.433207    25.759607    13.269689    -1.537615    0.508774    6.796189    38.11623    -23.432096    0.0    30.465517    -10.0    51.954105    -9.173192    0.0    14.702949    -9.581976    12.811426    -0.0    0.0    6.177423    -0.0    0.0    12.354845    45.000004    0.0    -0.0    0.0    0.0    0.0    0.0    0.0    0.0    34.754997    5.591835    12.125086    0.0    0.0    0.0    0.0    0.0    0.0    23.461033    8.814818    25.169756    0.0    0.0    0.0    0.0    0.0    0.0    11.310523    9.345368    39.07254    0.0    0.0    0.0    0.0    0.0    0.0    -13.250059    -3.129827    17.709679    90.0    -17.735033    90.0    0.0    -66.201927    -10.0    80.658882    20.0    0.0    74.992531    19.159033    -117.761162    0.0    0.0    -45.000004    0.0    0.0    -89.999992    -8.468613    -2.388324    15.636028    0.0    0.0    0.0    0.0    0.0    0.0    -0.689586    -0.882148    10.601725    10.130615    0.0    -0.0    5.065308    0.0    -0.0    7.189777    -0.075935    5.411057    20.26123    0.0    -0.0    10.130614    0.0    -0.0    15.349416    0.0    -0.0    30.698832    0.0    -0.0    15.349416    0.0    -0.0    121.210724    -35.0    66.855331    -153.690796    45.517845    105.0    5.0    -30.0    15.0    0.438737    9.92223    0.641258    -50.96138    -14.331923    -18.272249    0.2    24.119381    -1.0    5.0    -9.021821    15.0    -1.996435    1.648309    2.354075
